# xmcd CD database file generated by OrangeCD 5.1
#
# Track frame offsets:
#	150
#	19580
#	39865
#
# Disc length: 752 seconds
#
# Revision: 0
# Processed by: cddbd v1.4PL0 Copyright (c) Steve Scherf et al.
# Submitted via: OrangeCD 5.1
#
DISCID=1402ee03
DTITLE=Deacon Blue - Closing Time
DYEAR=1991
DGENRE=Pop
TTITLE0=Closing Time
TTITLE1=I Was Like That
TTITLE2=Into The Good Night
EXTD=
EXTT0=
EXTT1=
EXTT2=
PLAYORDER=
